<mxfile host="app.diagrams.net" agent="Mozilla/5.0 (Windows NT 10.0; Win64; x64) AppleWebKit/537.36 (KHTML, like Gecko) Chrome/134.0.0.0 Safari/537.36" version="26.2.13">
  <diagram name="第 1 页" id="2XzwPTHa8BzAV0N1NTdf">
    <mxGraphModel dx="1919" dy="1227" grid="0" gridSize="10" guides="1" tooltips="1" connect="1" arrows="0" fold="1" page="0" pageScale="1" pageWidth="827" pageHeight="1169" math="0" shadow="0">
      <root>
        <mxCell id="0" />
        <mxCell id="1" parent="0" />
        <mxCell id="5QTrU_g2mRKzhHm-S8lq-219" value="UI页面层(UI_ShowPages）" style="swimlane;fontStyle=1;align=center;verticalAlign=top;childLayout=stackLayout;horizontal=1;startSize=26;horizontalStack=0;resizeParent=1;resizeParentMax=0;resizeLast=0;collapsible=1;marginBottom=0;whiteSpace=wrap;html=1;fontFamily=Helvetica;fontSize=12;fontColor=default;labelBackgroundColor=default;" vertex="1" parent="1">
          <mxGeometry x="141" y="-328" width="197" height="153" as="geometry" />
        </mxCell>
        <mxCell id="5QTrU_g2mRKzhHm-S8lq-220" value="- 图像处理模块(pic_stack)&lt;div&gt;- 视频处理模块(vid_stack)&lt;/div&gt;&lt;div&gt;- 摄像头处理模块(cam_stack)&lt;/div&gt;&lt;div&gt;&lt;div&gt;&lt;br&gt;&lt;/div&gt;&lt;/div&gt;" style="text;strokeColor=none;fillColor=none;align=left;verticalAlign=top;spacingLeft=4;spacingRight=4;overflow=hidden;rotatable=0;points=[[0,0.5],[1,0.5]];portConstraint=eastwest;whiteSpace=wrap;html=1;fontFamily=Helvetica;fontSize=12;fontColor=default;labelBackgroundColor=default;" vertex="1" parent="5QTrU_g2mRKzhHm-S8lq-219">
          <mxGeometry y="26" width="197" height="47" as="geometry" />
        </mxCell>
        <mxCell id="5QTrU_g2mRKzhHm-S8lq-223" style="edgeStyle=none;shape=connector;curved=1;rounded=0;orthogonalLoop=1;jettySize=auto;html=1;exitX=0.5;exitY=0;exitDx=0;exitDy=0;strokeColor=default;align=center;verticalAlign=middle;fontFamily=Helvetica;fontSize=12;fontColor=default;labelBackgroundColor=default;startFill=0;startSize=8;endArrow=none;endSize=8;" edge="1" parent="5QTrU_g2mRKzhHm-S8lq-219" source="5QTrU_g2mRKzhHm-S8lq-219" target="5QTrU_g2mRKzhHm-S8lq-220">
          <mxGeometry relative="1" as="geometry" />
        </mxCell>
        <mxCell id="5QTrU_g2mRKzhHm-S8lq-222" value="- 构造函数(__init__)&lt;div&gt;- 展示图片页面(show_page_1)&lt;/div&gt;&lt;div&gt;- 展示视频页面(show_page_2)&lt;/div&gt;&lt;div&gt;- 展示实时监测(show_page_3)&lt;/div&gt;" style="text;strokeColor=none;fillColor=none;align=left;verticalAlign=top;spacingLeft=4;spacingRight=4;overflow=hidden;rotatable=0;points=[[0,0.5],[1,0.5]];portConstraint=eastwest;whiteSpace=wrap;html=1;fontFamily=Helvetica;fontSize=12;fontColor=default;labelBackgroundColor=default;" vertex="1" parent="5QTrU_g2mRKzhHm-S8lq-219">
          <mxGeometry y="73" width="197" height="80" as="geometry" />
        </mxCell>
        <mxCell id="5QTrU_g2mRKzhHm-S8lq-229" value="" style="endArrow=none;html=1;rounded=0;strokeColor=default;align=center;verticalAlign=middle;fontFamily=Helvetica;fontSize=12;fontColor=default;labelBackgroundColor=default;edgeStyle=none;startSize=8;endSize=8;curved=1;exitX=-0.005;exitY=0.076;exitDx=0;exitDy=0;exitPerimeter=0;entryX=0.984;entryY=0.076;entryDx=0;entryDy=0;entryPerimeter=0;" edge="1" parent="5QTrU_g2mRKzhHm-S8lq-219" source="5QTrU_g2mRKzhHm-S8lq-222" target="5QTrU_g2mRKzhHm-S8lq-222">
          <mxGeometry width="50" height="50" relative="1" as="geometry">
            <mxPoint x="208" y="247" as="sourcePoint" />
            <mxPoint x="258" y="197" as="targetPoint" />
          </mxGeometry>
        </mxCell>
        <mxCell id="5QTrU_g2mRKzhHm-S8lq-224" value="摄像头处理模块(MaskCam_Fun)" style="swimlane;fontStyle=1;align=center;verticalAlign=top;childLayout=stackLayout;horizontal=1;startSize=26;horizontalStack=0;resizeParent=1;resizeParentMax=0;resizeLast=0;collapsible=1;marginBottom=0;whiteSpace=wrap;html=1;fontFamily=Helvetica;fontSize=12;fontColor=default;labelBackgroundColor=default;" vertex="1" parent="1">
          <mxGeometry x="-157" y="-121" width="217" height="117" as="geometry" />
        </mxCell>
        <mxCell id="5QTrU_g2mRKzhHm-S8lq-225" value="+ 昆虫处理接口引用(Insect_interface)" style="text;strokeColor=none;fillColor=none;align=left;verticalAlign=top;spacingLeft=4;spacingRight=4;overflow=hidden;rotatable=0;points=[[0,0.5],[1,0.5]];portConstraint=eastwest;whiteSpace=wrap;html=1;fontFamily=Helvetica;fontSize=12;fontColor=default;labelBackgroundColor=default;" vertex="1" parent="5QTrU_g2mRKzhHm-S8lq-224">
          <mxGeometry y="26" width="217" height="28" as="geometry" />
        </mxCell>
        <mxCell id="5QTrU_g2mRKzhHm-S8lq-226" value="" style="line;strokeWidth=1;fillColor=none;align=left;verticalAlign=middle;spacingTop=-1;spacingLeft=3;spacingRight=3;rotatable=0;labelPosition=right;points=[];portConstraint=eastwest;strokeColor=inherit;fontFamily=Helvetica;fontSize=12;fontColor=default;labelBackgroundColor=default;" vertex="1" parent="5QTrU_g2mRKzhHm-S8lq-224">
          <mxGeometry y="54" width="217" height="8" as="geometry" />
        </mxCell>
        <mxCell id="5QTrU_g2mRKzhHm-S8lq-227" value="- 打开摄像头(open_camera)&lt;div&gt;- 检测摄像头(detect_camera)&lt;/div&gt;&lt;div&gt;+ 展示处理结果(show_frame)&amp;nbsp;&lt;/div&gt;" style="text;strokeColor=none;fillColor=none;align=left;verticalAlign=top;spacingLeft=4;spacingRight=4;overflow=hidden;rotatable=0;points=[[0,0.5],[1,0.5]];portConstraint=eastwest;whiteSpace=wrap;html=1;fontFamily=Helvetica;fontSize=12;fontColor=default;labelBackgroundColor=default;" vertex="1" parent="5QTrU_g2mRKzhHm-S8lq-224">
          <mxGeometry y="62" width="217" height="55" as="geometry" />
        </mxCell>
        <mxCell id="5QTrU_g2mRKzhHm-S8lq-230" value="视频处理模块(MaskVid_Fun)" style="swimlane;fontStyle=1;align=center;verticalAlign=top;childLayout=stackLayout;horizontal=1;startSize=26;horizontalStack=0;resizeParent=1;resizeParentMax=0;resizeLast=0;collapsible=1;marginBottom=0;whiteSpace=wrap;html=1;fontFamily=Helvetica;fontSize=12;fontColor=default;labelBackgroundColor=default;" vertex="1" parent="1">
          <mxGeometry x="125" y="-118" width="217" height="117" as="geometry" />
        </mxCell>
        <mxCell id="5QTrU_g2mRKzhHm-S8lq-231" value="+ 昆虫处理接口引用(Insect_interface)" style="text;strokeColor=none;fillColor=none;align=left;verticalAlign=top;spacingLeft=4;spacingRight=4;overflow=hidden;rotatable=0;points=[[0,0.5],[1,0.5]];portConstraint=eastwest;whiteSpace=wrap;html=1;fontFamily=Helvetica;fontSize=12;fontColor=default;labelBackgroundColor=default;" vertex="1" parent="5QTrU_g2mRKzhHm-S8lq-230">
          <mxGeometry y="26" width="217" height="28" as="geometry" />
        </mxCell>
        <mxCell id="5QTrU_g2mRKzhHm-S8lq-232" value="" style="line;strokeWidth=1;fillColor=none;align=left;verticalAlign=middle;spacingTop=-1;spacingLeft=3;spacingRight=3;rotatable=0;labelPosition=right;points=[];portConstraint=eastwest;strokeColor=inherit;fontFamily=Helvetica;fontSize=12;fontColor=default;labelBackgroundColor=default;" vertex="1" parent="5QTrU_g2mRKzhHm-S8lq-230">
          <mxGeometry y="54" width="217" height="8" as="geometry" />
        </mxCell>
        <mxCell id="5QTrU_g2mRKzhHm-S8lq-233" value="- 打开视频文件(open_mp4)&lt;div&gt;- 逐帧处理(detect_vid)&lt;/div&gt;&lt;div&gt;+ 展示处理结果(show_frame)&amp;nbsp;&lt;/div&gt;" style="text;strokeColor=none;fillColor=none;align=left;verticalAlign=top;spacingLeft=4;spacingRight=4;overflow=hidden;rotatable=0;points=[[0,0.5],[1,0.5]];portConstraint=eastwest;whiteSpace=wrap;html=1;fontFamily=Helvetica;fontSize=12;fontColor=default;labelBackgroundColor=default;" vertex="1" parent="5QTrU_g2mRKzhHm-S8lq-230">
          <mxGeometry y="62" width="217" height="55" as="geometry" />
        </mxCell>
        <mxCell id="5QTrU_g2mRKzhHm-S8lq-234" value="图像处理模块(MaskPic_Fun)" style="swimlane;fontStyle=1;align=center;verticalAlign=top;childLayout=stackLayout;horizontal=1;startSize=26;horizontalStack=0;resizeParent=1;resizeParentMax=0;resizeLast=0;collapsible=1;marginBottom=0;whiteSpace=wrap;html=1;fontFamily=Helvetica;fontSize=12;fontColor=default;labelBackgroundColor=default;" vertex="1" parent="1">
          <mxGeometry x="401" y="-120" width="217" height="117" as="geometry" />
        </mxCell>
        <mxCell id="5QTrU_g2mRKzhHm-S8lq-235" value="+ 昆虫处理接口引用(Insect_interface)" style="text;strokeColor=none;fillColor=none;align=left;verticalAlign=top;spacingLeft=4;spacingRight=4;overflow=hidden;rotatable=0;points=[[0,0.5],[1,0.5]];portConstraint=eastwest;whiteSpace=wrap;html=1;fontFamily=Helvetica;fontSize=12;fontColor=default;labelBackgroundColor=default;" vertex="1" parent="5QTrU_g2mRKzhHm-S8lq-234">
          <mxGeometry y="26" width="217" height="28" as="geometry" />
        </mxCell>
        <mxCell id="5QTrU_g2mRKzhHm-S8lq-236" value="" style="line;strokeWidth=1;fillColor=none;align=left;verticalAlign=middle;spacingTop=-1;spacingLeft=3;spacingRight=3;rotatable=0;labelPosition=right;points=[];portConstraint=eastwest;strokeColor=inherit;fontFamily=Helvetica;fontSize=12;fontColor=default;labelBackgroundColor=default;" vertex="1" parent="5QTrU_g2mRKzhHm-S8lq-234">
          <mxGeometry y="54" width="217" height="8" as="geometry" />
        </mxCell>
        <mxCell id="5QTrU_g2mRKzhHm-S8lq-237" value="- 上传图像(upload_img)&lt;div&gt;-&amp;nbsp; 检测图像(detect_img)&lt;/div&gt;&lt;div&gt;+ 展示处理结果(show_frame)&amp;nbsp;&lt;/div&gt;" style="text;strokeColor=none;fillColor=none;align=left;verticalAlign=top;spacingLeft=4;spacingRight=4;overflow=hidden;rotatable=0;points=[[0,0.5],[1,0.5]];portConstraint=eastwest;whiteSpace=wrap;html=1;fontFamily=Helvetica;fontSize=12;fontColor=default;labelBackgroundColor=default;" vertex="1" parent="5QTrU_g2mRKzhHm-S8lq-234">
          <mxGeometry y="62" width="217" height="55" as="geometry" />
        </mxCell>
        <mxCell id="5QTrU_g2mRKzhHm-S8lq-238" value="昆虫处理接口(Insect_Interface)" style="swimlane;fontStyle=1;align=center;verticalAlign=top;childLayout=stackLayout;horizontal=1;startSize=26;horizontalStack=0;resizeParent=1;resizeParentMax=0;resizeLast=0;collapsible=1;marginBottom=0;whiteSpace=wrap;html=1;fontFamily=Helvetica;fontSize=12;fontColor=default;labelBackgroundColor=default;" vertex="1" parent="1">
          <mxGeometry x="85" y="45" width="308" height="137" as="geometry" />
        </mxCell>
        <mxCell id="5QTrU_g2mRKzhHm-S8lq-239" value="- 昆虫检测器(detector）&lt;div&gt;- 昆虫识别器 (Identifier）&lt;/div&gt;&lt;div&gt;- 记录结果(log)&lt;br&gt;&lt;div&gt;&lt;br&gt;&lt;/div&gt;&lt;/div&gt;" style="text;strokeColor=none;fillColor=none;align=left;verticalAlign=top;spacingLeft=4;spacingRight=4;overflow=hidden;rotatable=0;points=[[0,0.5],[1,0.5]];portConstraint=eastwest;whiteSpace=wrap;html=1;fontFamily=Helvetica;fontSize=12;fontColor=default;labelBackgroundColor=default;" vertex="1" parent="5QTrU_g2mRKzhHm-S8lq-238">
          <mxGeometry y="26" width="308" height="52" as="geometry" />
        </mxCell>
        <mxCell id="5QTrU_g2mRKzhHm-S8lq-240" value="" style="line;strokeWidth=1;fillColor=none;align=left;verticalAlign=middle;spacingTop=-1;spacingLeft=3;spacingRight=3;rotatable=0;labelPosition=right;points=[];portConstraint=eastwest;strokeColor=inherit;fontFamily=Helvetica;fontSize=12;fontColor=default;labelBackgroundColor=default;" vertex="1" parent="5QTrU_g2mRKzhHm-S8lq-238">
          <mxGeometry y="78" width="308" height="15" as="geometry" />
        </mxCell>
        <mxCell id="5QTrU_g2mRKzhHm-S8lq-241" value="-&amp;nbsp; 构造函数(__init__)&lt;div&gt;+ 查找昆虫(get_direct)&lt;/div&gt;" style="text;strokeColor=none;fillColor=none;align=left;verticalAlign=top;spacingLeft=4;spacingRight=4;overflow=hidden;rotatable=0;points=[[0,0.5],[1,0.5]];portConstraint=eastwest;whiteSpace=wrap;html=1;fontFamily=Helvetica;fontSize=12;fontColor=default;labelBackgroundColor=default;" vertex="1" parent="5QTrU_g2mRKzhHm-S8lq-238">
          <mxGeometry y="93" width="308" height="44" as="geometry" />
        </mxCell>
        <mxCell id="5QTrU_g2mRKzhHm-S8lq-242" value="昆虫识别器(InsectIdentifier)" style="swimlane;fontStyle=1;align=center;verticalAlign=top;childLayout=stackLayout;horizontal=1;startSize=26;horizontalStack=0;resizeParent=1;resizeParentMax=0;resizeLast=0;collapsible=1;marginBottom=0;whiteSpace=wrap;html=1;fontFamily=Helvetica;fontSize=12;fontColor=default;labelBackgroundColor=default;" vertex="1" parent="1">
          <mxGeometry x="-107" y="226" width="207" height="127" as="geometry" />
        </mxCell>
        <mxCell id="5QTrU_g2mRKzhHm-S8lq-243" value="- 名称映射(label_name_dict)" style="text;strokeColor=none;fillColor=none;align=left;verticalAlign=top;spacingLeft=4;spacingRight=4;overflow=hidden;rotatable=0;points=[[0,0.5],[1,0.5]];portConstraint=eastwest;whiteSpace=wrap;html=1;fontFamily=Helvetica;fontSize=12;fontColor=default;labelBackgroundColor=default;" vertex="1" parent="5QTrU_g2mRKzhHm-S8lq-242">
          <mxGeometry y="26" width="207" height="36" as="geometry" />
        </mxCell>
        <mxCell id="5QTrU_g2mRKzhHm-S8lq-244" value="" style="line;strokeWidth=1;fillColor=none;align=left;verticalAlign=middle;spacingTop=-1;spacingLeft=3;spacingRight=3;rotatable=0;labelPosition=right;points=[];portConstraint=eastwest;strokeColor=inherit;fontFamily=Helvetica;fontSize=12;fontColor=default;labelBackgroundColor=default;" vertex="1" parent="5QTrU_g2mRKzhHm-S8lq-242">
          <mxGeometry y="62" width="207" height="8" as="geometry" />
        </mxCell>
        <mxCell id="5QTrU_g2mRKzhHm-S8lq-245" value="- 构造函数(__init__)&lt;div&gt;- 识别函数(identify_np)&lt;/div&gt;" style="text;strokeColor=none;fillColor=none;align=left;verticalAlign=top;spacingLeft=4;spacingRight=4;overflow=hidden;rotatable=0;points=[[0,0.5],[1,0.5]];portConstraint=eastwest;whiteSpace=wrap;html=1;fontFamily=Helvetica;fontSize=12;fontColor=default;labelBackgroundColor=default;" vertex="1" parent="5QTrU_g2mRKzhHm-S8lq-242">
          <mxGeometry y="70" width="207" height="57" as="geometry" />
        </mxCell>
        <mxCell id="5QTrU_g2mRKzhHm-S8lq-246" value="昆虫检测器(InsectIDector)" style="swimlane;fontStyle=1;align=center;verticalAlign=top;childLayout=stackLayout;horizontal=1;startSize=26;horizontalStack=0;resizeParent=1;resizeParentMax=0;resizeLast=0;collapsible=1;marginBottom=0;whiteSpace=wrap;html=1;fontFamily=Helvetica;fontSize=12;fontColor=default;labelBackgroundColor=default;" vertex="1" parent="1">
          <mxGeometry x="399" y="217" width="207" height="135" as="geometry" />
        </mxCell>
        <mxCell id="5QTrU_g2mRKzhHm-S8lq-247" value="- 输入图像宽度(input_witdth)&lt;div&gt;- 输入图像长度(input_height)&lt;/div&gt;" style="text;strokeColor=none;fillColor=none;align=left;verticalAlign=top;spacingLeft=4;spacingRight=4;overflow=hidden;rotatable=0;points=[[0,0.5],[1,0.5]];portConstraint=eastwest;whiteSpace=wrap;html=1;fontFamily=Helvetica;fontSize=12;fontColor=default;labelBackgroundColor=default;" vertex="1" parent="5QTrU_g2mRKzhHm-S8lq-246">
          <mxGeometry y="26" width="207" height="43" as="geometry" />
        </mxCell>
        <mxCell id="5QTrU_g2mRKzhHm-S8lq-248" value="" style="line;strokeWidth=1;fillColor=none;align=left;verticalAlign=middle;spacingTop=-1;spacingLeft=3;spacingRight=3;rotatable=0;labelPosition=right;points=[];portConstraint=eastwest;strokeColor=inherit;fontFamily=Helvetica;fontSize=12;fontColor=default;labelBackgroundColor=default;" vertex="1" parent="5QTrU_g2mRKzhHm-S8lq-246">
          <mxGeometry y="69" width="207" height="8" as="geometry" />
        </mxCell>
        <mxCell id="5QTrU_g2mRKzhHm-S8lq-249" value="- 构造函数(__init__)&lt;div&gt;- 检测函数(detect_np)&lt;/div&gt;" style="text;strokeColor=none;fillColor=none;align=left;verticalAlign=top;spacingLeft=4;spacingRight=4;overflow=hidden;rotatable=0;points=[[0,0.5],[1,0.5]];portConstraint=eastwest;whiteSpace=wrap;html=1;fontFamily=Helvetica;fontSize=12;fontColor=default;labelBackgroundColor=default;" vertex="1" parent="5QTrU_g2mRKzhHm-S8lq-246">
          <mxGeometry y="77" width="207" height="58" as="geometry" />
        </mxCell>
        <mxCell id="5QTrU_g2mRKzhHm-S8lq-250" value="ONNX模型基类(OnnxModel)" style="swimlane;fontStyle=1;align=center;verticalAlign=top;childLayout=stackLayout;horizontal=1;startSize=26;horizontalStack=0;resizeParent=1;resizeParentMax=0;resizeLast=0;collapsible=1;marginBottom=0;whiteSpace=wrap;html=1;fontFamily=Helvetica;fontSize=12;fontColor=default;labelBackgroundColor=default;" vertex="1" parent="1">
          <mxGeometry x="87" y="394" width="295" height="86" as="geometry" />
        </mxCell>
        <mxCell id="5QTrU_g2mRKzhHm-S8lq-251" value="- 加载好的模型推理回话(sees)" style="text;strokeColor=none;fillColor=none;align=left;verticalAlign=top;spacingLeft=4;spacingRight=4;overflow=hidden;rotatable=0;points=[[0,0.5],[1,0.5]];portConstraint=eastwest;whiteSpace=wrap;html=1;fontFamily=Helvetica;fontSize=12;fontColor=default;labelBackgroundColor=default;" vertex="1" parent="5QTrU_g2mRKzhHm-S8lq-250">
          <mxGeometry y="26" width="295" height="26" as="geometry" />
        </mxCell>
        <mxCell id="5QTrU_g2mRKzhHm-S8lq-252" value="" style="line;strokeWidth=1;fillColor=none;align=left;verticalAlign=middle;spacingTop=-1;spacingLeft=3;spacingRight=3;rotatable=0;labelPosition=right;points=[];portConstraint=eastwest;strokeColor=inherit;fontFamily=Helvetica;fontSize=12;fontColor=default;labelBackgroundColor=default;" vertex="1" parent="5QTrU_g2mRKzhHm-S8lq-250">
          <mxGeometry y="52" width="295" height="8" as="geometry" />
        </mxCell>
        <mxCell id="5QTrU_g2mRKzhHm-S8lq-253" value="- 模型推理输出(forward)" style="text;strokeColor=none;fillColor=none;align=left;verticalAlign=top;spacingLeft=4;spacingRight=4;overflow=hidden;rotatable=0;points=[[0,0.5],[1,0.5]];portConstraint=eastwest;whiteSpace=wrap;html=1;fontFamily=Helvetica;fontSize=12;fontColor=default;labelBackgroundColor=default;" vertex="1" parent="5QTrU_g2mRKzhHm-S8lq-250">
          <mxGeometry y="60" width="295" height="26" as="geometry" />
        </mxCell>
        <mxCell id="5QTrU_g2mRKzhHm-S8lq-254" value="" style="endArrow=block;dashed=1;endFill=0;endSize=12;html=1;rounded=0;strokeColor=default;align=center;verticalAlign=middle;fontFamily=Helvetica;fontSize=12;fontColor=default;labelBackgroundColor=default;edgeStyle=none;curved=1;exitX=0.598;exitY=0.976;exitDx=0;exitDy=0;exitPerimeter=0;entryX=0;entryY=0.5;entryDx=0;entryDy=0;" edge="1" parent="1" source="5QTrU_g2mRKzhHm-S8lq-245" target="5QTrU_g2mRKzhHm-S8lq-251">
          <mxGeometry width="160" relative="1" as="geometry">
            <mxPoint x="48" y="382" as="sourcePoint" />
            <mxPoint x="208" y="382" as="targetPoint" />
          </mxGeometry>
        </mxCell>
        <mxCell id="5QTrU_g2mRKzhHm-S8lq-255" value="继承" style="text;html=1;align=center;verticalAlign=middle;resizable=0;points=[];autosize=1;strokeColor=none;fillColor=none;fontSize=12;fontFamily=Helvetica;fontColor=default;labelBackgroundColor=default;" vertex="1" parent="1">
          <mxGeometry x="9" y="385" width="42" height="26" as="geometry" />
        </mxCell>
        <mxCell id="5QTrU_g2mRKzhHm-S8lq-256" value="" style="endArrow=block;dashed=1;endFill=0;endSize=12;html=1;rounded=0;strokeColor=default;align=center;verticalAlign=middle;fontFamily=Helvetica;fontSize=12;fontColor=default;labelBackgroundColor=default;edgeStyle=none;curved=1;exitX=0.478;exitY=1.011;exitDx=0;exitDy=0;exitPerimeter=0;entryX=1.004;entryY=0.197;entryDx=0;entryDy=0;entryPerimeter=0;" edge="1" parent="1" source="5QTrU_g2mRKzhHm-S8lq-249" target="5QTrU_g2mRKzhHm-S8lq-251">
          <mxGeometry width="160" relative="1" as="geometry">
            <mxPoint x="522" y="377" as="sourcePoint" />
            <mxPoint x="395" y="381" as="targetPoint" />
          </mxGeometry>
        </mxCell>
        <mxCell id="5QTrU_g2mRKzhHm-S8lq-257" value="继承" style="text;html=1;align=center;verticalAlign=middle;resizable=0;points=[];autosize=1;strokeColor=none;fillColor=none;fontSize=12;fontFamily=Helvetica;fontColor=default;labelBackgroundColor=default;" vertex="1" parent="1">
          <mxGeometry x="449.5" y="385" width="42" height="26" as="geometry" />
        </mxCell>
        <mxCell id="5QTrU_g2mRKzhHm-S8lq-258" value="" style="endArrow=diamondThin;endFill=0;endSize=24;html=1;rounded=0;strokeColor=default;align=center;verticalAlign=middle;fontFamily=Helvetica;fontSize=12;fontColor=default;labelBackgroundColor=default;edgeStyle=none;curved=1;exitX=0.5;exitY=0;exitDx=0;exitDy=0;entryX=0;entryY=0.5;entryDx=0;entryDy=0;" edge="1" parent="1" source="5QTrU_g2mRKzhHm-S8lq-242" target="5QTrU_g2mRKzhHm-S8lq-239">
          <mxGeometry width="160" relative="1" as="geometry">
            <mxPoint x="-54" y="145" as="sourcePoint" />
            <mxPoint x="106" y="145" as="targetPoint" />
          </mxGeometry>
        </mxCell>
        <mxCell id="5QTrU_g2mRKzhHm-S8lq-259" value="组合" style="text;html=1;align=center;verticalAlign=middle;resizable=0;points=[];autosize=1;strokeColor=none;fillColor=none;fontSize=12;fontFamily=Helvetica;fontColor=default;labelBackgroundColor=default;" vertex="1" parent="1">
          <mxGeometry x="1" y="143" width="42" height="26" as="geometry" />
        </mxCell>
        <mxCell id="5QTrU_g2mRKzhHm-S8lq-260" value="" style="endArrow=diamondThin;endFill=0;endSize=24;html=1;rounded=0;strokeColor=default;align=center;verticalAlign=middle;fontFamily=Helvetica;fontSize=12;fontColor=default;labelBackgroundColor=default;edgeStyle=none;curved=1;exitX=0.5;exitY=0;exitDx=0;exitDy=0;entryX=1;entryY=0.5;entryDx=0;entryDy=0;" edge="1" parent="1" source="5QTrU_g2mRKzhHm-S8lq-246" target="5QTrU_g2mRKzhHm-S8lq-239">
          <mxGeometry width="160" relative="1" as="geometry">
            <mxPoint x="243" y="145" as="sourcePoint" />
            <mxPoint x="403" y="145" as="targetPoint" />
          </mxGeometry>
        </mxCell>
        <mxCell id="5QTrU_g2mRKzhHm-S8lq-261" value="组合" style="text;html=1;align=center;verticalAlign=middle;resizable=0;points=[];autosize=1;strokeColor=none;fillColor=none;fontSize=12;fontFamily=Helvetica;fontColor=default;labelBackgroundColor=default;" vertex="1" parent="1">
          <mxGeometry x="469" y="149" width="42" height="26" as="geometry" />
        </mxCell>
        <mxCell id="5QTrU_g2mRKzhHm-S8lq-262" value="" style="endArrow=diamondThin;endFill=0;endSize=24;html=1;rounded=0;strokeColor=default;align=center;verticalAlign=middle;fontFamily=Helvetica;fontSize=12;fontColor=default;labelBackgroundColor=default;edgeStyle=none;curved=1;exitX=0.5;exitY=0;exitDx=0;exitDy=0;entryX=0;entryY=0.5;entryDx=0;entryDy=0;" edge="1" parent="1" source="5QTrU_g2mRKzhHm-S8lq-224" target="5QTrU_g2mRKzhHm-S8lq-222">
          <mxGeometry width="160" relative="1" as="geometry">
            <mxPoint x="108" y="-90" as="sourcePoint" />
            <mxPoint x="268" y="-90" as="targetPoint" />
          </mxGeometry>
        </mxCell>
        <mxCell id="5QTrU_g2mRKzhHm-S8lq-263" value="" style="endArrow=diamondThin;endFill=0;endSize=24;html=1;rounded=0;strokeColor=default;align=center;verticalAlign=middle;fontFamily=Helvetica;fontSize=12;fontColor=default;labelBackgroundColor=default;edgeStyle=none;curved=1;exitX=0.5;exitY=0;exitDx=0;exitDy=0;entryX=0.474;entryY=0.995;entryDx=0;entryDy=0;entryPerimeter=0;" edge="1" parent="1" source="5QTrU_g2mRKzhHm-S8lq-230" target="5QTrU_g2mRKzhHm-S8lq-222">
          <mxGeometry width="160" relative="1" as="geometry">
            <mxPoint x="108" y="-90" as="sourcePoint" />
            <mxPoint x="268" y="-90" as="targetPoint" />
          </mxGeometry>
        </mxCell>
        <mxCell id="5QTrU_g2mRKzhHm-S8lq-264" value="" style="endArrow=diamondThin;endFill=0;endSize=24;html=1;rounded=0;strokeColor=default;align=center;verticalAlign=middle;fontFamily=Helvetica;fontSize=12;fontColor=default;labelBackgroundColor=default;edgeStyle=none;curved=1;exitX=0.5;exitY=0;exitDx=0;exitDy=0;entryX=1;entryY=0.5;entryDx=0;entryDy=0;" edge="1" parent="1" source="5QTrU_g2mRKzhHm-S8lq-234" target="5QTrU_g2mRKzhHm-S8lq-222">
          <mxGeometry width="160" relative="1" as="geometry">
            <mxPoint x="377" y="-90" as="sourcePoint" />
            <mxPoint x="537" y="-90" as="targetPoint" />
          </mxGeometry>
        </mxCell>
        <mxCell id="5QTrU_g2mRKzhHm-S8lq-265" value="组合" style="text;html=1;align=center;verticalAlign=middle;resizable=0;points=[];autosize=1;strokeColor=none;fillColor=none;fontSize=12;fontFamily=Helvetica;fontColor=default;labelBackgroundColor=default;" vertex="1" parent="1">
          <mxGeometry x="5" y="-197" width="42" height="26" as="geometry" />
        </mxCell>
        <mxCell id="5QTrU_g2mRKzhHm-S8lq-266" value="组合" style="text;html=1;align=center;verticalAlign=middle;resizable=0;points=[];autosize=1;strokeColor=none;fillColor=none;fontSize=12;fontFamily=Helvetica;fontColor=default;labelBackgroundColor=default;" vertex="1" parent="1">
          <mxGeometry x="232.5" y="-153.5" width="42" height="26" as="geometry" />
        </mxCell>
        <mxCell id="5QTrU_g2mRKzhHm-S8lq-267" value="组合" style="text;html=1;align=center;verticalAlign=middle;resizable=0;points=[];autosize=1;strokeColor=none;fillColor=none;fontSize=12;fontFamily=Helvetica;fontColor=default;labelBackgroundColor=default;" vertex="1" parent="1">
          <mxGeometry x="443" y="-184" width="42" height="26" as="geometry" />
        </mxCell>
        <mxCell id="5QTrU_g2mRKzhHm-S8lq-269" value="调用" style="html=1;verticalAlign=bottom;endArrow=block;curved=0;rounded=0;strokeColor=default;align=center;fontFamily=Helvetica;fontSize=12;fontColor=default;labelBackgroundColor=default;edgeStyle=none;startSize=8;endSize=8;exitX=0.732;exitY=1.032;exitDx=0;exitDy=0;exitPerimeter=0;entryX=0;entryY=0;entryDx=0;entryDy=0;" edge="1" parent="1" source="5QTrU_g2mRKzhHm-S8lq-227" target="5QTrU_g2mRKzhHm-S8lq-238">
          <mxGeometry width="80" relative="1" as="geometry">
            <mxPoint x="113" y="145" as="sourcePoint" />
            <mxPoint x="193" y="145" as="targetPoint" />
          </mxGeometry>
        </mxCell>
        <mxCell id="5QTrU_g2mRKzhHm-S8lq-272" value="调用" style="html=1;verticalAlign=bottom;endArrow=block;curved=0;rounded=0;strokeColor=default;align=center;fontFamily=Helvetica;fontSize=12;fontColor=default;labelBackgroundColor=default;edgeStyle=none;startSize=8;endSize=8;exitX=0.46;exitY=1.08;exitDx=0;exitDy=0;exitPerimeter=0;entryX=0.5;entryY=0;entryDx=0;entryDy=0;" edge="1" parent="1" source="5QTrU_g2mRKzhHm-S8lq-233" target="5QTrU_g2mRKzhHm-S8lq-238">
          <mxGeometry width="80" relative="1" as="geometry">
            <mxPoint x="293" y="145" as="sourcePoint" />
            <mxPoint x="373" y="145" as="targetPoint" />
          </mxGeometry>
        </mxCell>
        <mxCell id="5QTrU_g2mRKzhHm-S8lq-273" value="调用" style="html=1;verticalAlign=bottom;endArrow=block;curved=0;rounded=0;strokeColor=default;align=center;fontFamily=Helvetica;fontSize=12;fontColor=default;labelBackgroundColor=default;edgeStyle=none;startSize=8;endSize=8;exitX=0.442;exitY=0.997;exitDx=0;exitDy=0;exitPerimeter=0;entryX=1;entryY=0;entryDx=0;entryDy=0;" edge="1" parent="1" source="5QTrU_g2mRKzhHm-S8lq-237" target="5QTrU_g2mRKzhHm-S8lq-238">
          <mxGeometry width="80" relative="1" as="geometry">
            <mxPoint x="293" y="145" as="sourcePoint" />
            <mxPoint x="373" y="145" as="targetPoint" />
          </mxGeometry>
        </mxCell>
        <mxCell id="5QTrU_g2mRKzhHm-S8lq-275" value="name" style="endArrow=block;endFill=1;html=1;edgeStyle=orthogonalEdgeStyle;align=left;verticalAlign=top;rounded=0;strokeColor=default;fontFamily=Helvetica;fontSize=12;fontColor=default;labelBackgroundColor=default;startSize=8;endSize=8;curved=1;exitX=0.007;exitY=0.043;exitDx=0;exitDy=0;exitPerimeter=0;entryX=-0.007;entryY=0.188;entryDx=0;entryDy=0;entryPerimeter=0;" edge="1" parent="1" source="5QTrU_g2mRKzhHm-S8lq-222" target="5QTrU_g2mRKzhHm-S8lq-238">
          <mxGeometry x="-1" relative="1" as="geometry">
            <mxPoint x="116" y="-269.9299999999999" as="sourcePoint" />
            <mxPoint x="-276" y="12.57" as="targetPoint" />
            <Array as="points">
              <mxPoint x="142" y="-270" />
              <mxPoint x="-275" y="-270" />
              <mxPoint x="-275" y="97" />
              <mxPoint x="83" y="97" />
            </Array>
          </mxGeometry>
        </mxCell>
        <mxCell id="5QTrU_g2mRKzhHm-S8lq-276" value="1" style="edgeLabel;resizable=0;html=1;align=left;verticalAlign=bottom;fontFamily=Helvetica;fontSize=12;fontColor=default;labelBackgroundColor=default;" connectable="0" vertex="1" parent="5QTrU_g2mRKzhHm-S8lq-275">
          <mxGeometry x="-1" relative="1" as="geometry" />
        </mxCell>
        <mxCell id="5QTrU_g2mRKzhHm-S8lq-277" value="依赖" style="text;html=1;align=center;verticalAlign=middle;resizable=0;points=[];autosize=1;strokeColor=none;fillColor=none;fontSize=12;fontFamily=Helvetica;fontColor=default;labelBackgroundColor=default;" vertex="1" parent="1">
          <mxGeometry x="-95.5" y="-299.5" width="42" height="26" as="geometry" />
        </mxCell>
      </root>
    </mxGraphModel>
  </diagram>
</mxfile>
